<svg width="39" height="40" viewBox="0 0 39 40" fill="none" xmlns="http://www.w3.org/2000/svg">
<path fill-rule="evenodd" clip-rule="evenodd" d="M36.8621 11.9932C35.3169 9.61719 32.2355 8.76898 29.6878 10.0176C26.9661 11.396 25.8792 14.7147 27.2604 17.4304C28.0472 18.9774 29.5177 20.0648 31.2298 20.3657C31.022 26.9115 25.5355 32.0498 18.9753 31.8425C12.6034 31.641 7.52584 26.4587 7.46798 20.0978C7.4565 15.1971 10.5112 10.8101 15.1182 9.11081C16.0036 8.79125 16.5139 7.86584 16.3106 6.94865L16.2972 6.89006C16.071 5.88681 16.7028 4.89027 17.7083 4.66454C17.7904 4.64638 17.8739 4.63341 17.9577 4.62627C18.4201 4.58389 18.885 4.56292 19.3524 4.56249C19.9305 4.56249 20.5082 4.59406 21.0831 4.65698C22.1219 4.77049 23.0559 4.02195 23.1694 2.98562C23.1731 2.95146 23.1759 2.9173 23.1779 2.88314C23.2058 1.85525 22.4249 0.984326 21.398 0.898056C20.7184 0.826705 20.0356 0.791029 19.3524 0.791029C8.66435 0.791029 4.57764e-05 9.43643 4.57764e-05 20.1011C4.57764e-05 30.7655 8.66457 39.4107 19.3526 39.4107C30.0406 39.4107 38.7049 30.7653 38.7049 20.1011C38.7049 18.2131 38.3246 14.143 36.8621 11.9932Z" fill="#222222"/>
</svg>
