<svg width="188" height="44" viewBox="0 0 188 44" fill="none" xmlns="http://www.w3.org/2000/svg">
<path fill-rule="evenodd" clip-rule="evenodd" d="M47.237 32.7149V3.76694H64.226V7.39594H50.755V16.2959H62.853V19.9259H50.755V28.9989H65.17V32.6279H47.237V32.7149ZM83.017 32.7149L77.182 25.0249L71.347 32.7149H67.23L75.209 22.4319L66.8 11.8029H71.434L77.182 19.7539L83.017 11.8029H87.564L79.585 22.4319L87.136 32.7149H83.017ZM92.799 29.6039V43.8619H89.281V22.5179C89.281 17.0739 93.399 11.2849 99.835 11.2849C106.355 11.2849 111.246 15.4329 111.246 22.2589C111.246 28.9129 106.27 33.4929 100.607 33.4929C97.861 33.4929 94.172 32.2829 92.799 29.6039ZM107.557 22.2589C107.557 17.5929 104.554 14.8289 99.234 15.0869C96.66 15.1739 92.714 17.0739 93.056 23.7289C93.142 25.8889 95.373 29.9489 100.264 29.9489C104.468 29.9489 107.557 27.5299 107.557 22.2589ZM114.25 32.7149V11.8029H117.768V14.0499C119.484 12.0619 122.143 11.3709 124.975 11.3709V15.1739C124.546 15.0869 120.341 14.5679 117.768 20.0989V32.8019H114.25V32.7149ZM125.919 22.2599C125.919 16.2099 130.209 11.2849 136.129 11.2849C143.509 11.2849 146.254 16.2109 146.254 22.5179V24.2469H129.78C130.037 28.2219 133.555 30.2949 136.816 30.2089C139.218 30.1229 140.849 29.4319 142.566 27.7039L144.882 30.1239C142.737 32.1969 139.991 33.5789 136.645 33.5789C130.381 33.4929 125.919 28.8259 125.919 22.2589V22.2599ZM135.872 14.8289C132.526 14.8289 129.952 17.7649 129.78 20.9639H142.565C142.565 17.8519 140.335 14.8279 135.872 14.8279V14.8289ZM148.057 29.7769L150.63 27.4439C150.545 27.4439 151.918 28.8269 152.09 28.9129C152.69 29.4319 153.29 29.7769 154.063 29.9499C156.293 30.5549 160.326 30.3819 160.67 27.2709C160.841 25.5429 159.554 24.5919 158.096 23.9869C156.208 23.2969 154.148 23.0369 152.261 22.1729C150.115 21.2229 148.744 19.5809 148.744 17.1619C148.744 10.8519 157.666 9.81594 161.699 12.7539C161.871 12.9269 163.844 14.7409 163.759 14.7409L161.184 16.8159C159.898 15.2599 158.696 14.4819 155.951 14.4819C154.578 14.4819 152.69 15.0869 152.347 16.5559C151.832 18.6299 154.148 19.4079 155.693 19.8399C157.753 20.3579 159.983 20.7039 161.785 21.8269C164.274 23.3829 164.875 26.7519 163.93 29.3449C162.9 32.1969 159.811 33.3199 157.066 33.4049C153.806 33.5789 150.974 32.5419 148.657 30.2099C148.485 30.2099 148.057 29.7769 148.057 29.7769ZM166.161 29.7769L168.736 27.4439C168.65 27.4439 170.022 28.8269 170.194 28.9129C170.794 29.4319 171.396 29.7769 172.167 29.9499C174.397 30.5549 178.432 30.3819 178.775 27.2709C178.945 25.5429 177.659 24.5919 176.2 23.9869C174.312 23.2969 172.253 23.0369 170.366 22.1729C168.221 21.2229 166.848 19.5809 166.848 17.1619C166.848 10.8519 175.772 9.81594 179.804 12.7539C179.976 12.9269 181.949 14.7409 181.864 14.7409L179.29 16.8159C178.002 15.2599 176.8 14.4819 174.055 14.4819C172.682 14.4819 170.795 15.0869 170.451 16.5559C169.937 18.6299 172.253 19.4079 173.797 19.8399C175.857 20.3579 178.089 20.7039 179.89 21.8269C182.378 23.3829 182.98 26.7519 182.035 29.3449C181.005 32.1969 177.917 33.3199 175.17 33.4049C171.91 33.5789 169.079 32.5419 166.762 30.2099C166.59 30.2099 166.162 29.7769 166.162 29.7769H166.161ZM182.893 11.8029V9.55594H182.121V9.12394H184.18V9.55594H183.408V11.8029H182.893ZM186.754 11.8029V9.72994L185.982 11.8029H185.81L185.038 9.72994V11.8029H184.609V9.12394H185.296L185.982 10.9399L186.669 9.12394H187.355V11.8029H186.754ZM23.383 32.7149L20.809 25.8019H6.90899L4.33399 32.7149H0.644989L11.8 3.76694H15.832L26.902 32.7149H23.383ZM13.687 7.91494L8.45399 22.2599H19.35L13.687 7.91494ZM29.218 32.7149H32.822V3.76794H29.218V32.7149ZM38.227 32.7149H41.831V12.2359H38.227V32.7149ZM45.263 5.58194V5.23594C42.518 5.14994 40.286 2.90294 40.201 0.137939H39.686C39.6 2.90294 37.369 5.14994 34.624 5.23594V5.58194C37.369 5.66794 39.6 7.91494 39.686 10.6799H40.201C40.286 7.91494 42.518 5.66794 45.263 5.58194Z" fill="#222222"/>
</svg>
