<svg width="191" height="32" viewBox="0 0 191 32" fill="none" xmlns="http://www.w3.org/2000/svg">
<path fill-rule="evenodd" clip-rule="evenodd" d="M109.349 7.11498C111.676 7.11498 113.11 7.93498 113.91 8.62498L114.138 8.82398L114.275 8.55798C114.638 7.87498 115.361 7.50098 116.3 7.50098H118.604L118.584 23.405C118.584 29.468 113.66 31.624 109.442 31.624C107.394 31.624 105.127 31.072 103.387 30.151L103.041 29.968L103.597 28.548L103.99 27.578C104.417 26.526 105.031 26.265 106.083 26.581C106.888 26.872 108.091 27.194 109.413 27.194C112.133 27.194 113.636 25.915 113.636 23.601V23.119L113.253 23.405C112.263 24.152 111.019 24.518 109.442 24.518C104.825 24.518 101.6 20.913 101.6 15.752C101.6 10.587 104.718 7.11498 109.349 7.11498ZM136.559 7.20998C139.114 7.20998 142.916 8.29298 142.916 11.275V13.535L140.324 13.531C140.107 13.531 139.004 13.467 138.639 12.254L138.617 12.165C138.457 11.63 137.447 11.311 136.559 11.311C133.821 11.311 131.909 13.327 131.909 16.207C131.909 19.544 134.374 21.041 136.818 21.041C139.335 21.041 141.281 19.15 141.52 18.906L141.544 18.881L141.814 18.594L143.867 21.991L143.731 22.159C143.707 22.188 141.154 25.269 136.458 25.269C131.046 25.269 127.123 21.475 127.123 16.242C127.123 11.012 131.088 7.20998 136.559 7.20998ZM27.742 7.19298C33.015 7.19298 36.842 10.97 36.842 16.173C36.842 21.375 33.015 25.153 27.742 25.153C22.488 25.153 18.676 21.375 18.676 16.173C18.676 10.97 22.488 7.19298 27.742 7.19298ZM47.195 7.19298C52.462 7.19298 56.297 10.97 56.297 16.173C56.297 21.375 52.462 25.153 47.195 25.153C41.936 25.153 38.124 21.375 38.124 16.173C38.124 10.97 41.936 7.19298 47.194 7.19298H47.195ZM153.355 7.19298C158.621 7.19298 162.455 10.97 162.455 16.173C162.455 21.375 158.621 25.153 153.355 25.153C148.097 25.153 144.285 21.375 144.285 16.173C144.285 10.97 148.097 7.19298 153.355 7.19298ZM123.425 19.313C125.017 19.313 126.311 20.605 126.311 22.2C126.311 23.792 125.017 25.085 123.424 25.085C121.837 25.085 120.547 23.792 120.547 22.2C120.547 20.605 121.837 19.312 123.424 19.312L123.425 19.313ZM78.003 7.54698C79.759 7.54698 80.609 8.40698 80.609 10.179L80.599 24.877H80.589V24.883H79.429L78.262 24.887C78.231 24.887 78.204 24.883 78.172 24.883H75.667V20.953H75.669L75.655 7.54698H78.004H78.003ZM60.42 0.877977C61.79 0.877977 63.06 1.15498 63.06 3.18998V13.362H63.855C64.451 13.362 64.849 13.215 65.045 12.927L68.529 7.54698H74.157L69.52 14.425C69.283 14.774 69.036 15.075 68.796 15.328L68.628 15.488L68.788 15.656C69.036 15.914 69.271 16.24 69.475 16.623L71.363 20.189L74.208 24.889H70.385C68.945 24.889 68.181 24.647 67.411 23.242L64.661 18.059C64.483 17.752 64.096 17.686 63.528 17.686H63.06V24.888H58.075L58.069 0.878977H60.419L60.42 0.877977ZM93.683 7.15298C97.737 7.15298 99.879 9.46998 99.879 13.853L99.887 24.882H97.529C95.729 24.882 94.896 24.04 94.896 22.245V14.693C94.896 12.588 94.293 11.773 92.746 11.773C90.825 11.773 89.286 12.937 88.736 14.81C88.528 15.428 88.427 16.106 88.427 16.889V24.882H83.475L83.461 7.53998H85.695C87.047 7.53998 87.945 8.10098 88.21 9.11998L88.318 9.53398L88.621 9.22998C89.527 8.27998 91.146 7.15298 93.683 7.15298ZM184.578 7.20898L184.81 7.21298C188.481 7.30298 190.346 9.53698 190.346 13.852L190.341 24.877H188.115C186.367 24.877 185.589 24.099 185.589 22.353V14.639C185.589 12.428 185.049 11.604 183.594 11.604C181.581 11.604 180.284 13.407 179.902 15.168C179.715 15.792 179.636 16.418 179.636 17.253V24.877H174.872V14.639C174.872 12.721 174.244 11.729 172.959 11.607C170.873 11.409 169.63 13.39 169.179 15.233C169.013 15.924 168.929 16.587 168.929 17.253V24.877H164.2L164.22 7.60498H166.301C167.599 7.60498 168.457 8.13298 168.717 9.09498L168.899 9.76198L169.368 9.25398C170.086 8.49398 171.628 7.20998 173.931 7.20998C176.127 7.20998 177.705 8.05798 178.622 9.72698L178.903 10.235L179.262 9.78098C180.537 8.17098 182.525 7.21098 184.58 7.21098L184.578 7.20898ZM3.68101 0.887977H8.86101C13.401 0.887977 16.333 3.32498 16.333 7.09798C16.333 9.56398 15.093 10.991 14.353 11.626L13.717 12.169L14.446 12.579C16.215 13.572 17.266 15.526 17.266 17.814C17.266 22.058 14.011 24.8 8.96401 24.8L3.04101 24.801L3.03101 24.8H0.654007V3.37998C0.667007 2.02898 1.74601 0.934977 3.09201 0.887977H3.68101ZM27.742 11.395C25.258 11.395 23.534 13.362 23.534 16.174C23.534 18.984 25.258 20.954 27.742 20.954C30.275 20.954 31.984 19.03 31.984 16.174C31.984 13.362 30.24 11.394 27.742 11.394V11.395ZM47.195 11.395C44.712 11.395 42.984 13.362 42.984 16.174C42.984 18.984 44.712 20.954 47.194 20.954C49.728 20.954 51.437 19.03 51.437 16.174C51.437 13.362 49.687 11.394 47.195 11.394V11.395ZM153.355 11.395C150.872 11.395 149.142 13.362 149.142 16.174C149.142 18.984 150.872 20.954 153.354 20.954C155.887 20.954 157.599 19.03 157.599 16.174C157.599 13.362 155.847 11.394 153.354 11.394L153.355 11.395ZM9.29501 14.253H6.54801C5.66501 14.377 5.26501 14.91 5.26501 15.939V20.75L9.29601 20.755C11.291 20.754 12.528 19.538 12.528 17.488C12.528 15.488 11.258 14.253 9.29601 14.253H9.29501ZM110.059 11.475C106.896 11.475 106.649 14.65 106.649 15.623C106.649 17.831 107.613 20.189 110.319 20.189C111.874 20.189 113.728 19.426 113.728 15.786C113.728 11.927 111.633 11.476 110.059 11.476V11.475ZM8.82901 4.80798H6.76601C5.73601 4.87598 5.26501 5.40198 5.26501 6.51098V10.554H8.89301C10.932 10.554 11.658 8.98098 11.658 7.63298C11.658 5.86598 10.598 4.80798 8.82801 4.80798H8.82901ZM77.937 0.125977C79.53 0.125977 80.825 1.41598 80.825 3.01198C80.825 4.60398 79.53 5.89498 77.937 5.89498C76.348 5.89498 75.059 4.60398 75.059 3.01198C75.059 1.41698 76.349 0.125977 77.937 0.125977Z" fill="#222222"/>
</svg>
