<svg width="185" height="30" viewBox="0 0 185 30" fill="none" xmlns="http://www.w3.org/2000/svg">
<path fill-rule="evenodd" clip-rule="evenodd" d="M92.1159 29.316C98.3179 29.316 102.45 25.307 102.45 18.542V1.23502H95.6659V18.27C95.6659 21.42 94.5309 22.98 92.1519 22.98C89.8559 22.98 88.8729 21.383 88.8729 18.27V1.23502H82.0529V18.542C82.0619 25.457 85.8379 29.316 92.1139 29.316H92.1159ZM112.521 13.991H111.275V7.42102H113.065C116.072 7.42102 117.515 8.35602 117.515 10.646C117.505 13.132 115.875 13.991 112.521 13.991ZM120.625 2.74902C118.751 1.43102 116.531 1.23502 113.608 1.23502H104.408V28.886H111.19V19.981H113.14C116.025 19.981 118.208 19.784 119.97 18.738C122.733 17.066 124.373 14.113 124.373 10.533C124.373 7.06602 123.09 4.45902 120.625 2.74902ZM161.886 13.486L172.22 28.887H178.179V1.23502H171.406V16.598L161.221 1.23502H155.103V28.887H161.886V13.486ZM66.0699 22.55C62.2469 22.55 58.7799 19.205 58.7799 14.85C58.7799 10.804 62.0129 7.58102 66.1539 7.58102C70.0519 7.58102 73.2939 10.804 73.2939 14.851C73.2839 19.355 70.0519 22.551 66.0699 22.551V22.55ZM76.0099 4.81402C73.3209 2.17002 69.8169 0.731021 66.1069 0.731021C62.1719 0.731021 58.7339 2.09502 56.0069 4.77702C53.2809 7.45802 51.7909 10.963 51.7909 14.775C51.7909 18.859 53.1219 22.279 55.7269 25.046C58.4519 27.924 61.9659 29.4 66.0599 29.4C69.9199 29.4 73.5839 27.887 76.2719 25.084C78.8869 22.401 80.2919 18.859 80.2919 14.898C80.3019 11.112 78.8209 7.57102 76.0099 4.81402ZM139.541 22.55C135.719 22.55 132.252 19.205 132.252 14.85C132.252 10.804 135.494 7.58102 139.625 7.58102C143.523 7.58102 146.765 10.804 146.765 14.851C146.755 19.355 143.514 22.551 139.541 22.551V22.55ZM149.481 4.81402C146.793 2.17002 143.279 0.731021 139.579 0.731021C135.634 0.731021 132.206 2.09502 129.479 4.77702C126.752 7.45802 125.263 10.963 125.263 14.775C125.263 18.859 126.593 22.279 129.197 25.046C131.934 27.924 135.437 29.4 139.532 29.4C143.392 29.4 147.055 27.887 149.744 25.084C152.358 22.401 153.764 18.859 153.764 14.898C153.774 11.112 152.292 7.57102 149.482 4.81402H149.481ZM4.58094 25.036C7.30694 27.914 10.7839 29.429 14.8779 29.429C19.5989 29.429 24.0409 27.092 26.6919 23.242C28.2939 20.905 29.0719 18.261 29.0719 15.15C29.0719 14.57 29.0339 13.944 28.9969 13.317H13.2009V18.84H21.1179C19.7489 21.252 17.4539 22.578 14.8779 22.578C11.0549 22.578 7.62594 19.196 7.62594 14.794C7.62594 10.823 10.8209 7.52402 14.8779 7.52402C17.0609 7.52402 18.8499 8.42202 20.5739 10.207H28.2939C26.0739 4.29102 20.8839 0.674022 14.9619 0.674022C11.0269 0.674022 7.59694 2.07602 4.86194 4.75802C2.13594 7.44102 0.65594 10.945 0.65594 14.757C0.64594 18.85 1.96694 22.27 4.58094 25.037V25.036ZM38.8909 13.991H37.5689V7.42102H39.4429C42.4409 7.42102 43.8839 8.35602 43.8839 10.646C43.8839 13.132 42.2439 13.991 38.8909 13.991ZM44.4649 19.392C48.3999 18.299 50.7429 14.962 50.7429 10.487C50.7429 7.06702 49.4579 4.45902 46.9949 2.74902C45.1209 1.43102 42.9009 1.23502 39.9769 1.23502H30.7769V28.886H37.5599V19.981L42.8629 28.886H51.2479L44.4649 19.392ZM180.99 1.37502C181.346 1.02102 181.767 0.843021 182.264 0.843021C182.76 0.843021 183.191 1.02102 183.538 1.37502C183.885 1.72202 184.063 2.15102 184.063 2.64502C184.063 3.14202 183.885 3.57202 183.538 3.92702C183.191 4.28102 182.77 4.45902 182.264 4.45902C181.767 4.45902 181.336 4.28102 180.99 3.92702C180.642 3.57202 180.465 3.15102 180.465 2.64602C180.465 2.15102 180.634 1.73102 180.99 1.37602V1.37502ZM182.254 4.74002C182.836 4.74002 183.332 4.53402 183.734 4.12302C184.147 3.71202 184.344 3.21602 184.344 2.64602C184.344 2.06602 184.138 1.58102 183.734 1.17802C183.332 0.777021 182.836 0.572021 182.254 0.572021C181.683 0.572021 181.186 0.777021 180.784 1.17802C180.371 1.59102 180.174 2.07602 180.174 2.64602C180.174 3.22502 180.381 3.72102 180.784 4.12302C181.186 4.53302 181.674 4.74002 182.254 4.74002Z" fill="#222222"/>
</svg>
