<svg width="191" height="26" viewBox="0 0 191 26" fill="none" xmlns="http://www.w3.org/2000/svg">
<path fill-rule="evenodd" clip-rule="evenodd" d="M162.098 8.83299C162.005 8.72099 161.864 8.65399 161.715 8.65399H159.119C158.883 8.65399 158.676 8.81899 158.629 9.04999L158.427 10.03C157.851 9.51399 157.276 9.18399 156.452 8.86499L156.194 8.75199C156.162 8.74099 156.131 8.72799 156.098 8.72199C153.28 8.10499 150.447 8.95199 148.128 11.106C146.97 12.169 146.092 13.401 145.51 14.727L148.92 0.910988C148.95 0.800988 148.924 0.680988 148.853 0.590988C148.783 0.500988 148.673 0.447988 148.558 0.447988H145.398C145.288 0.447988 145.188 0.492988 145.117 0.574988L131.367 16.057C131.849 13.737 134.551 0.897988 134.551 0.897988C134.551 0.872988 134.558 0.844988 134.558 0.820988C134.558 0.737988 134.531 0.651988 134.474 0.585988C134.404 0.498988 134.295 0.447988 134.184 0.447988H130.694C130.583 0.447988 130.479 0.495988 130.409 0.574988L112.971 20.665C112.678 17.74 111.284 14.555 111.284 14.555C108.947 9.77799 103.747 8.23099 100.798 10.97L100.778 10.975L100.315 11.31C102.454 7.90399 107.882 8.05599 111.375 12.066C111.375 12.066 112.928 13.928 114.029 16.698C114.323 15.72 114.503 14.706 114.558 13.67C112.738 11.215 110.688 9.77299 110.688 9.77299C106.274 6.80299 100.991 8.05699 99.81 11.9L99.794 11.916L99.566 12.436C99.71 8.41599 104.484 5.84399 109.518 7.57299C109.518 7.57299 111.888 8.44099 114.28 10.363C114.248 10.21 114.215 10.057 114.173 9.90299C113.915 8.88799 113.539 7.92499 113.056 7.02799C110.266 5.82299 107.792 5.59899 107.792 5.59899C102.479 5.23099 98.535 8.94699 99.439 12.865L99.432 12.886L99.492 13.453C97.604 9.89899 100.448 5.29299 105.672 4.27599C105.672 4.27599 108.099 3.85599 111.082 4.29899C110.326 3.50199 109.462 2.80399 108.504 2.21399C105.513 2.56399 103.281 3.59699 103.281 3.59699C98.498 5.92499 96.944 11.114 99.691 14.059L99.694 14.076L100.031 14.539C96.616 12.403 96.771 6.99199 100.787 3.50599C100.787 3.50599 102.664 1.94599 105.457 0.839988C104.305 0.495988 103.11 0.319988 101.906 0.312988C99.571 2.08499 98.209 4.00999 98.209 4.00999C95.232 8.41499 96.489 13.683 100.34 14.863L100.355 14.875L100.878 15.108C96.851 14.964 94.272 10.2 96.004 5.17799C96.004 5.17799 96.802 3.01199 98.562 0.734988C97.554 0.995988 96.601 1.37699 95.707 1.85499C94.57 4.55999 94.357 6.91499 94.357 6.91499C93.987 12.215 97.715 16.15 101.643 15.251L101.661 15.256L102.231 15.193C98.669 17.079 94.048 14.241 93.034 9.02599C93.034 9.02599 92.627 6.69599 93.034 3.79299C92.185 4.59499 91.442 5.51599 90.827 6.54499C91.208 9.40499 92.182 11.507 92.182 11.507C94.517 16.282 99.717 17.831 102.666 15.09L102.688 15.086L103.15 14.752C101.012 18.157 95.583 18.005 92.092 13.995C92.092 13.995 90.302 11.764 89.366 9.16499C89.368 9.04299 89.331 8.92599 89.254 8.83299C89.158 8.72099 89.018 8.65399 88.866 8.65399H86.273C86.035 8.65399 85.83 8.81899 85.78 9.04999C85.78 9.04999 85.581 9.35199 85.49 9.94599C84.914 9.43199 84.231 9.13399 83.608 8.86499L83.344 8.75199C83.314 8.74099 83.281 8.72799 83.251 8.72199C80.433 8.10499 77.601 8.95199 75.281 11.106C73.91 12.365 72.926 13.858 72.367 15.471L72.319 15.577L73.422 9.23699C73.446 9.09399 73.406 8.94399 73.31 8.83099C73.213 8.71899 73.072 8.65299 72.926 8.65399L70.158 8.65799C69.916 8.65899 69.708 8.83099 69.665 9.07099L66.805 24.627C66.78 24.773 66.821 24.924 66.915 25.039C67.01 25.15 67.152 25.215 67.3 25.215L70.217 25.222C70.463 25.222 70.672 25.046 70.712 24.806L71.814 18.476C71.826 18.516 71.836 18.542 71.836 18.542C71.826 19.171 71.878 19.809 71.996 20.446C72.425 22.825 74.539 25.044 76.818 25.496C78.806 25.855 80.932 25.352 83.03 24.06C82.989 24.286 82.923 24.627 82.923 24.627C82.917 24.657 82.915 24.687 82.915 24.719C82.915 24.835 82.955 24.949 83.03 25.039C83.124 25.152 83.266 25.215 83.418 25.215L85.992 25.222C86.234 25.222 86.442 25.052 86.486 24.814L88.752 12.571C90.447 14.579 92.664 16.294 92.664 16.294C97.077 19.266 102.358 18.011 103.539 14.17L103.557 14.153L103.786 13.631C103.642 17.65 98.866 20.226 93.832 18.494C93.832 18.494 91.661 17.698 89.374 15.942C89.393 16.025 89.41 16.111 89.431 16.196C89.703 17.247 90.096 18.245 90.605 19.171C93.265 20.264 95.56 20.471 95.56 20.471C100.87 20.841 104.815 17.122 103.913 13.203L103.92 13.183L103.857 12.614C105.747 16.168 102.902 20.781 97.675 21.791C97.675 21.791 95.392 22.191 92.528 21.804C93.214 22.524 93.986 23.17 94.839 23.724C97.807 23.365 100.005 22.345 100.005 22.345C104.79 20.018 106.346 14.828 103.599 11.886L103.593 11.864L103.257 11.404C106.673 13.539 106.52 18.95 102.503 22.437C102.503 22.437 100.587 24.024 97.755 25.132C98.535 25.395 99.339 25.581 100.152 25.688H101.31C103.689 23.898 105.077 21.932 105.077 21.932C108.057 17.527 106.801 12.257 102.947 11.08L102.932 11.064L102.411 10.834C106.439 10.979 109.019 15.742 107.286 20.766C107.286 20.766 106.42 23.116 104.501 25.499C104.655 25.465 104.803 25.433 104.956 25.393C105.93 25.147 106.846 24.786 107.697 24.348C108.887 21.585 109.107 19.143 109.107 19.143C109.48 13.847 105.751 9.90899 101.82 10.81L101.804 10.806L101.235 10.866C104.795 8.98199 109.419 11.82 110.435 17.035C110.435 17.035 111.021 19.429 110.582 22.265C110.498 22.675 110.326 23.268 109.994 23.902C109.894 24.078 109.769 24.286 109.617 24.528L109.621 24.521C109.619 24.528 109.613 24.533 109.609 24.541C109.605 24.548 109.605 24.549 109.605 24.555C109.545 24.656 109.533 24.783 109.585 24.895C109.643 25.029 109.777 25.114 109.926 25.111H111.545C112.397 25.107 113.128 25.102 114.101 25.136C114.217 25.138 114.328 25.088 114.402 25.003L128.482 8.20899C127.888 11.273 126.203 19.151 124.997 24.682C124.994 24.709 124.991 24.736 124.991 24.762C124.991 24.847 125.019 24.93 125.071 24.996C125.144 25.086 125.251 25.136 125.369 25.136L128.217 25.111C128.325 25.111 128.428 25.065 128.498 24.981C128.498 24.981 141.127 10.244 142.743 8.36099C142.07 11.437 140.226 19.207 138.912 24.674C138.902 24.704 138.898 24.73 138.898 24.761C138.898 24.842 138.926 24.925 138.98 24.992C139.052 25.083 139.159 25.136 139.276 25.136H142.644C142.816 25.136 142.969 25.019 143.01 24.849L144.468 18.948L144.671 18.118C144.678 18.355 144.681 18.542 144.681 18.542C144.674 19.171 144.726 19.809 144.844 20.446C145.269 22.825 147.388 25.044 149.663 25.496C151.65 25.855 153.779 25.352 155.876 24.06L155.769 24.627C155.764 24.657 155.76 24.687 155.76 24.719C155.76 24.835 155.8 24.949 155.874 25.039C155.972 25.152 156.114 25.215 156.26 25.215L158.836 25.222C159.081 25.222 159.287 25.052 159.331 24.814L161.657 12.487L162.214 9.16499C162.216 9.04299 162.178 8.92599 162.097 8.83299H162.098ZM0.369995 24.896V24.586C0.385995 24.554 0.404995 24.523 0.429995 24.496L21.234 0.574988C21.306 0.494988 21.408 0.446988 21.519 0.446988H24.877C24.987 0.446988 25.093 0.497988 25.167 0.584988C25.22 0.650988 25.251 0.738988 25.251 0.819988C25.251 0.843988 25.246 0.871988 25.241 0.896988C25.241 0.896988 22.636 13.735 22.151 16.057C23.794 14.207 35.903 0.574988 35.903 0.574988C35.973 0.492988 36.077 0.447988 36.181 0.447988H39.343C39.459 0.447988 39.569 0.500988 39.64 0.590988C39.71 0.680988 39.736 0.800988 39.706 0.910988L36.388 14.351C36.416 14.301 36.439 14.252 36.465 14.206C38.044 11.142 41.045 8.98799 44.292 8.59199C44.302 8.58899 44.315 8.58899 44.328 8.58899C47.265 8.44099 49.532 9.54899 50.891 11.789L50.913 11.825C51.401 12.803 51.765 14.118 51.83 15.471C52.385 13.858 53.37 12.365 54.74 11.106C57.06 8.95199 59.89 8.10499 62.711 8.72199C62.74 8.72799 62.775 8.74099 62.804 8.75199L63.066 8.86499C63.692 9.13399 64.373 9.43199 64.949 9.94599C65.254 8.51499 66.149 4.26799 66.149 4.26799C66.199 4.03799 66.403 3.87199 66.639 3.87199H69.234C69.384 3.87199 69.524 3.93899 69.62 4.04999C69.715 4.16399 69.755 4.31599 69.73 4.46199L65.945 24.814C65.9 25.052 65.694 25.222 65.452 25.222L62.877 25.215C62.727 25.215 62.583 25.152 62.488 25.039C62.413 24.949 62.372 24.835 62.372 24.719C62.372 24.688 62.376 24.656 62.382 24.627C62.382 24.627 62.447 24.286 62.488 24.06C60.39 25.352 58.267 25.855 56.277 25.495C54 25.044 51.883 22.825 51.455 20.446C51.339 19.809 51.287 19.171 51.293 18.542C51.203 18.622 51.084 18.672 50.957 18.672L39.007 18.677C38.996 18.727 38.987 18.77 38.987 18.822C38.987 19.004 39.051 19.242 39.133 19.512L39.184 19.687C39.751 21.077 41.112 21.949 42.656 21.912C44.191 21.877 45.613 21.144 46.877 19.735C46.97 19.628 47.107 19.568 47.248 19.568H49.912C50.084 19.568 50.246 19.656 50.335 19.802C50.428 19.947 50.44 20.129 50.368 20.284C48.855 23.456 45.464 25.586 41.905 25.586C39.428 25.49 37.35 24.288 36.193 22.278C35.617 21.207 35.344 19.878 35.36 18.516L33.797 24.849C33.755 25.019 33.602 25.136 33.43 25.136H30.06C29.946 25.136 29.837 25.083 29.768 24.992C29.712 24.925 29.684 24.842 29.684 24.762C29.684 24.73 29.689 24.703 29.694 24.674C31.011 19.207 32.856 11.437 33.526 8.36199L19.283 24.982C19.213 25.065 19.111 25.111 19.002 25.111L16.155 25.136C16.04 25.136 15.934 25.086 15.861 24.996C15.807 24.93 15.777 24.846 15.777 24.761C15.777 24.736 15.777 24.709 15.784 24.682C16.989 19.151 18.674 11.272 19.267 8.20899L5.187 25.003C5.114 25.088 5.003 25.138 4.887 25.136C3.915 25.102 3.183 25.106 2.331 25.111H0.709995C0.564995 25.114 0.431995 25.029 0.369995 24.896ZM157.467 17.332C156.884 19.364 154.957 21.299 153.072 21.755C151.63 21.945 150.574 21.81 149.842 21.335C149.065 20.803 148.675 19.88 148.374 19.048C148.324 18.75 148.294 18.45 148.294 18.157C148.294 16.306 149.288 14.522 151.116 13.155C152.163 12.423 153.592 12.145 154.842 12.431C155.547 12.594 156.515 13.012 157.117 14.101C157.452 14.692 157.633 15.441 157.633 16.171C157.633 16.575 157.577 16.971 157.467 17.332ZM40.131 14.997L47.874 14.924C47.814 14.371 47.522 13.854 46.91 13.242C46.235 12.665 45.31 12.394 43.995 12.387C42.571 12.585 40.908 13.519 40.131 14.997ZM64.081 17.332C64.191 16.971 64.244 16.575 64.244 16.172C64.244 15.441 64.066 14.692 63.73 14.102C63.123 13.012 62.16 12.594 61.452 12.432C60.204 12.145 58.775 12.422 57.724 13.155C55.901 14.522 54.906 16.305 54.906 18.157C54.906 18.45 54.934 18.75 54.986 19.048C55.287 19.88 55.676 20.803 56.452 21.335C57.188 21.81 58.246 21.945 59.683 21.755C61.567 21.299 63.494 19.364 64.081 17.332ZM70.389 4.26799L69.784 7.53999C69.756 7.68599 69.797 7.83899 69.892 7.95699C69.987 8.06899 70.128 8.13499 70.28 8.13499H73.2C73.44 8.13499 73.65 7.96499 73.693 7.72499L74.242 4.48199C74.265 4.33699 74.226 4.18499 74.133 4.07199C74.038 3.95899 73.897 3.89199 73.753 3.89099L70.882 3.86599C70.642 3.86399 70.435 4.03499 70.389 4.26799ZM84.622 17.332C84.037 19.364 82.108 21.299 80.226 21.755C78.786 21.945 77.73 21.81 76.994 21.335C76.218 20.803 75.83 19.88 75.529 19.048C75.477 18.75 75.449 18.45 75.449 18.157C75.449 16.306 76.442 14.522 78.269 13.155C79.319 12.423 80.744 12.145 81.996 12.431C82.702 12.594 83.667 13.012 84.271 14.101C84.608 14.692 84.788 15.441 84.788 16.171C84.788 16.575 84.731 16.971 84.622 17.332ZM180.598 23.773L175.788 16.069C176.178 15.61 180.271 10.635 181.102 9.65999L180.734 11.589C180.706 11.736 180.747 11.887 180.843 12C180.937 12.113 181.077 12.181 181.228 12.181H182.503C182.358 13.061 181.024 21.168 180.598 23.773ZM166.596 9.60499L166.653 9.24499C166.682 9.09999 166.64 8.94899 166.548 8.83499C166.451 8.72199 166.312 8.65499 166.164 8.65499H163.566C163.326 8.65199 163.116 8.82099 163.07 9.05899L162.997 9.45099L160.221 24.585C160.197 24.731 160.241 24.884 160.339 24.997C160.437 25.109 160.586 25.176 160.736 25.172L162.018 25.153H163.223C163.463 25.153 163.663 24.986 163.71 24.755L165.615 15.363C166.244 12.983 167.825 12.274 169.223 12.068C169.298 12.058 169.58 12.062 169.64 12.024C168.682 17.718 167.548 24.46 167.527 24.574C167.503 24.716 167.545 24.864 167.64 24.977C167.734 25.088 167.876 25.153 168.019 25.153H170.816C171.035 25.153 171.23 25.013 171.292 24.803C171.382 24.529 172.051 20.659 172.452 18.334C173.488 19.901 176.797 24.924 176.797 24.924C176.89 25.064 177.047 25.148 177.214 25.148L180.558 25.153C180.619 25.153 180.674 25.139 180.731 25.121C180.802 25.153 180.881 25.175 180.959 25.172L183.782 25.153C184.026 25.151 184.231 24.977 184.271 24.743L186.451 12.187L189.691 12.182C189.934 12.182 190.141 12.007 190.184 11.769L190.62 9.23499C190.626 9.20699 190.629 9.18099 190.629 9.14999C190.629 9.03599 190.587 8.92199 190.513 8.83199C190.418 8.71999 190.279 8.65499 190.128 8.65499H186.935C187.091 7.75899 187.659 4.45499 187.659 4.45499C187.663 4.42699 187.666 4.39899 187.666 4.37099C187.666 4.25199 187.626 4.13799 187.549 4.04999C187.456 3.93499 187.313 3.87299 187.168 3.87299H184.361C184.119 3.87299 183.911 4.04699 183.869 4.28499C183.869 4.28499 183.245 7.97799 183.129 8.65499C182.875 8.66299 182.614 8.66799 182.614 8.66799L182.176 8.67099L181.711 8.66299C181.533 8.65899 181.374 8.74999 181.281 8.89299C181.191 8.75699 181.039 8.66799 180.869 8.66799L178.3 8.66299H177.549C177.409 8.66299 177.277 8.72199 177.18 8.82299C177.18 8.82299 174.596 11.777 173.224 13.26C173.625 10.91 174.732 4.46299 174.732 4.46299C174.736 4.43299 174.739 4.40599 174.739 4.37599C174.739 4.25999 174.696 4.14599 174.619 4.05799C174.526 3.94299 174.386 3.87899 174.239 3.87899L171.444 3.87299C171.198 3.87099 170.987 4.04599 170.948 4.28399C170.883 4.66899 170.593 6.38399 170.204 8.67099L170.191 8.65099C170.093 8.53599 169.95 8.47599 169.798 8.48099C168.608 8.51599 167.533 9.00199 166.596 9.60499Z" fill="#222222"/>
</svg>
