<svg width="133" height="59" viewBox="0 0 133 59" fill="none" xmlns="http://www.w3.org/2000/svg">
<path fill-rule="evenodd" clip-rule="evenodd" d="M40.344 23.2381H28.493C28.097 23.2381 27.798 22.9361 27.798 22.5371V21.0781C27.79 20.7231 27.903 20.5621 28.121 20.2901L37.554 9.23512H28.31C27.916 9.23512 27.617 8.93212 27.616 8.53512V7.50212C27.617 7.10212 27.916 6.80312 28.31 6.80112H40.282C40.678 6.80312 40.977 7.10212 40.977 7.50212V8.99012C40.983 9.25812 40.892 9.48612 40.678 9.72712L31.221 20.8031H40.343C40.739 20.8041 41.037 21.1061 41.038 21.5041V22.5371C41.038 22.9361 40.738 23.2381 40.343 23.2381H40.344ZM63.705 23.5421H63.708C64.556 23.5251 65.183 23.3551 65.429 23.0781C65.516 22.9781 65.559 22.8651 65.547 22.7541C65.541 22.6611 65.541 22.6611 65.308 21.5611L65.303 21.5341C65.25 21.2471 65.049 21.1161 64.88 21.1161L64.858 21.1171C64.858 21.1171 64.644 21.1071 64.434 21.1071H64.431C63.826 21.0891 63.326 20.9991 63.315 20.1071V1.43612C63.315 1.12512 63.129 0.808119 62.771 0.798119L62.666 0.799119L61.011 1.22512C60.729 1.25512 60.436 1.45712 60.448 1.83212V20.1681C60.451 22.3411 61.608 23.5381 63.705 23.5431V23.5421ZM97.159 23.2381H95.68C95.285 23.2381 94.986 22.9361 94.984 22.5371V11.2981C94.959 9.39812 94.396 8.86812 92.364 8.83812C90.064 8.83812 87.74 9.42012 86.974 9.63112V22.5371C86.972 22.9431 86.694 23.2381 86.309 23.2381H84.801C84.406 23.2381 84.108 22.9361 84.107 22.5371V9.93212C84.085 8.76512 84.194 7.95812 85.84 7.42212C87.417 6.87212 90.433 6.40712 92.427 6.40612C96.223 6.41112 97.847 7.79312 97.851 11.0241V22.5371C97.851 22.9361 97.551 23.2381 97.158 23.2381H97.159ZM111.998 9.30012C111.448 9.15912 109.908 8.81012 108.174 8.81012C104.992 8.83912 103.656 9.71012 103.624 15.0351C103.66 20.8821 105.386 21.1981 108.204 21.2281V21.3521V21.2281C109.957 21.2281 111.462 20.8601 111.996 20.7121L111.998 9.30012ZM112.774 23.0191L112.599 23.0641C111.659 23.3041 110.372 23.6331 108.114 23.6331H108.111C101.894 23.6241 100.672 20.4611 100.666 15.0041C100.675 8.74412 102.643 6.41412 107.928 6.40612C109.794 6.40612 111.08 6.64912 112.002 6.87412L111.996 1.83312C111.989 1.61012 112.088 1.32112 112.606 1.22112L114.258 0.797119H114.348C114.729 0.807119 114.862 1.14712 114.863 1.43512V20.3821C114.888 21.5761 114.748 22.6021 112.774 23.0191ZM124.829 21.1991C120.756 21.1811 120.552 19.0731 120.523 15.0351C120.552 10.9761 120.755 8.85812 124.829 8.83912C128.905 8.85912 129.109 10.9761 129.137 15.0321C129.108 19.0721 128.905 21.1811 124.829 21.1981V21.1991ZM124.829 6.40612C118.112 6.41612 117.542 10.8631 117.536 15.0351C117.542 19.1891 118.112 23.6251 124.829 23.6331H124.831C131.542 23.6241 132.115 19.2031 132.125 15.0351C132.117 10.6741 131.548 6.41512 124.829 6.40512V6.40612ZM78.269 15.1221C77.595 15.1301 74.332 15.1821 73.03 15.4631L72.93 15.4861C71.47 15.8151 70.315 16.0731 70.302 18.2541C70.305 20.9961 72.387 21.2421 74.519 21.2601L74.521 21.3831V21.2601C75.857 21.2601 77.116 21.0681 78.268 20.6931V15.1221H78.269ZM81.15 11.1161V19.8331C81.18 22.0031 80.626 22.6931 78.462 23.2001C77.513 23.3981 76.061 23.6311 74.488 23.6331C72.168 23.6271 67.346 23.6181 67.344 18.3751C67.328 14.2461 69.79 13.5281 72.763 13.0681C74.712 12.7531 76.693 12.7061 77.7 12.7061C77.972 12.7061 78.15 12.7081 78.253 12.7111V11.2371C78.243 10.2531 78.239 9.65712 77.324 9.30912C76.764 9.07112 75.923 8.96012 74.676 8.96012C72.619 8.96012 70.776 9.42612 69.558 9.73412L69.092 9.84412C69.042 9.85712 68.988 9.86912 68.918 9.87412C68.702 9.87412 68.468 9.74412 68.381 9.45912L68.374 9.43312L68.098 8.02912V7.95812C68.102 7.62612 68.338 7.43212 68.56 7.36212C69.544 6.99212 72.142 6.40712 74.94 6.40612C76.986 6.40712 78.462 6.67512 79.456 7.22512C81.156 8.13112 81.153 9.78612 81.15 11.1151V11.1161ZM54.154 20.6931C53.002 21.0681 51.742 21.2601 50.406 21.2601V21.3831L50.405 21.2601C48.273 21.2421 46.191 20.9961 46.188 18.2541C46.202 16.0741 47.356 15.8141 48.817 15.4861L48.919 15.4631C50.218 15.1821 53.481 15.1301 54.154 15.1221V20.6931ZM55.341 7.22512C54.348 6.67512 52.872 6.40712 50.827 6.40512C48.029 6.40712 45.431 6.99212 44.448 7.36212C44.225 7.43212 43.988 7.62612 43.984 7.95812L43.985 8.02912L44.26 9.43312L44.267 9.45912C44.353 9.74512 44.59 9.87312 44.804 9.87312H44.805C44.874 9.86912 44.929 9.85712 44.979 9.84512L45.444 9.73512C46.664 9.42512 48.504 8.96012 50.562 8.96012C51.81 8.96012 52.649 9.07112 53.212 9.31012C54.125 9.65812 54.129 10.2531 54.141 11.2371V12.7111C54.034 12.7081 53.859 12.7061 53.588 12.7061C52.58 12.7061 50.598 12.7531 48.65 13.0681C45.676 13.5281 43.216 14.2461 43.23 18.3751C43.233 23.6181 48.056 23.6271 50.374 23.6331C51.948 23.6311 53.4 23.3981 54.348 23.2001C56.512 22.6931 57.064 22.0021 57.035 19.8331V11.1161C57.038 9.78612 57.043 8.13112 55.341 7.22512Z" fill="#222222"/>
<path fill-rule="evenodd" clip-rule="evenodd" d="M116.503 41.9712C116.473 40.8412 116.41 39.7452 116.131 38.6472C115.632 36.7022 114.481 36.1082 112.149 36.1082C109.756 36.1082 108.636 36.7362 108.138 38.6482C107.858 39.7142 107.827 40.8722 107.797 42.0022L116.503 41.9722V41.9712ZM119.457 42.1902V43.7262C119.457 43.9462 119.241 44.1962 119.022 44.1962H107.827C107.827 45.8582 108.168 46.7972 108.883 47.5812C109.756 48.5862 111.185 48.9312 113.238 48.9312C115.166 48.9312 116.41 48.5212 117.748 48.1452C117.811 48.1152 117.873 48.1152 117.935 48.1152C118.091 48.1152 118.183 48.2092 118.275 48.4282L118.618 49.7132C118.65 49.7452 118.65 49.8082 118.65 49.8392C118.65 50.0272 118.525 50.1542 118.308 50.2162C117.093 50.7162 115.042 51.1562 112.896 51.1562C106.801 51.1562 104.841 48.3972 104.841 42.5352C104.841 37.1112 106.055 33.8822 112.181 33.8822C115.415 33.8822 117.311 34.8552 118.368 36.5472C119.241 37.9902 119.457 39.9332 119.457 42.1902ZM98.8979 48.3962C98.8979 48.3962 97.1559 48.9612 95.0119 48.9612C91.9949 48.9612 90.3469 48.3332 90.3469 42.5342C90.3469 37.1422 91.7469 36.1072 94.9799 36.1072C97.0649 36.1072 98.8979 36.6082 98.8979 36.6082V48.3962ZM101.761 51.8202V37.0802C101.761 35.9202 101.668 35.0122 99.7389 34.5402C98.6189 34.2572 96.9699 33.8822 94.7629 33.8822C89.1649 33.8822 87.3629 36.3592 87.3629 42.5662C87.3629 48.2092 88.6679 51.1562 94.6709 51.1562C96.9099 51.1562 98.0019 50.8652 98.9979 50.6122L98.8879 50.7622V53.1812C98.8019 55.0912 97.9209 56.5822 94.5699 56.5822C92.0899 56.5822 90.6349 55.8802 89.9389 54.2432C89.8389 54.0992 89.6659 54.0492 89.4659 54.1312L87.9719 54.7302C87.7309 54.8272 87.6679 55.0222 87.7519 55.2402L87.7459 55.2472C88.5359 57.6082 90.5789 58.8642 94.5699 58.8642C100.76 58.8642 101.763 55.6412 101.763 52.3512V51.8212H101.761V51.8202ZM84.2809 38.4602V50.2792C84.2809 50.5592 84.1239 50.7472 83.8149 50.7472H81.8879C81.5769 50.7472 81.3889 50.5592 81.3889 50.2792V38.8032C81.3889 36.7982 80.6449 36.1082 78.6239 36.1082C75.9789 36.1082 73.2729 36.8922 73.2729 36.8922V50.2802C73.2729 50.5602 73.1179 50.7482 72.8069 50.7482H70.8779C70.5679 50.7482 70.3799 50.5602 70.3799 50.2802V37.1432C70.3799 35.9192 70.5679 35.3872 72.1849 34.8552C73.8009 34.3222 76.7849 33.8822 78.7779 33.8822C82.5099 33.8822 84.2819 35.0122 84.2819 38.4602H84.2809ZM66.8079 33.8802H66.6849L64.6919 34.3522C64.4139 34.3822 64.2589 34.5082 64.2589 34.8222L64.2889 44.9482C64.2889 47.1412 63.9159 48.9612 60.2139 48.9612C57.1039 48.9612 56.1399 47.7362 56.1399 45.0112V34.3232C56.1399 34.1032 56.0489 33.8832 55.7999 33.8832H55.7059L53.6839 34.3232C53.4339 34.3852 53.2479 34.5102 53.2479 34.7932V44.7622C53.2479 48.9632 54.8329 51.1582 60.2139 51.1582C66.4039 51.1582 67.1489 48.0222 67.1489 44.7302V34.3222C67.1489 34.0712 67.0549 33.8822 66.8079 33.8822V33.8802ZM47.4379 42.5342C47.4379 38.5842 47.2519 36.1072 43.0229 36.1072C38.8239 36.1072 38.6379 38.5842 38.6379 42.5342C38.6379 46.4532 38.8239 48.9302 43.0229 48.9302C47.2519 48.9302 47.4379 46.4532 47.4379 42.5342ZM50.4249 42.5342C50.4249 47.2662 49.6469 51.1562 43.0229 51.1562C36.4299 51.1562 35.6219 47.2662 35.6219 42.5342C35.6219 37.7682 36.4299 33.8812 43.0219 33.8812C49.6469 33.8812 50.4249 37.7682 50.4249 42.5342ZM33.8659 48.6472C33.8359 48.6472 33.8039 48.6782 33.7439 48.6782C33.5559 48.7112 33.0889 48.8042 32.6539 48.8042C32.0319 48.8042 31.2849 48.6162 31.2849 47.4862V28.7202C31.2849 28.4702 31.1929 28.2832 30.9439 28.2832H30.8499L28.8289 28.7512C28.5489 28.7852 28.3939 28.9112 28.3939 29.1912V47.6132C28.3939 49.9652 29.6989 51.0622 31.7819 51.0622C33.0279 51.0622 33.8989 50.7802 34.1469 50.6552C34.2089 50.6552 34.3949 50.5602 34.3949 50.3102V50.2162L34.1149 48.9312C34.0849 48.7112 33.9899 48.6472 33.8659 48.6472Z" fill="#222222"/>
<path fill-rule="evenodd" clip-rule="evenodd" d="M19.324 12.0502L19.321 12.0512L19.129 11.8382C16.335 8.74918 10.539 5.01318 3.97895 5.01318C1.92395 5.01318 0.863951 10.6502 0.955951 15.8772L0.949951 15.8762C1.05995 20.4942 2.08995 24.9202 4.13495 24.9202C11.975 24.9202 20.905 17.5962 20.905 14.9712C20.905 14.3142 20.228 13.0472 19.325 12.0502" fill="#222222"/>
</svg>
